<?xml version="1.0" encoding="utf-8"?>
<!-- Generator: Adobe Illustrator 25.2.0, SVG Export Plug-In . SVG Version: 6.00 Build 0)  -->
<svg version="1.1" id="Layer_1" xmlns="http://www.w3.org/2000/svg" xmlns:xlink="http://www.w3.org/1999/xlink" x="0px" y="0px"
	 viewBox="0 0 60 60" style="enable-background:new 0 0 60 60;" xml:space="preserve">
<style type="text/css">
	.st0{fill:#02022d;}
</style>
<g>
	<path class="st0" d="M23.2,52.8H9.7c-2.8,0-5.1-2.3-5.1-5.1V12.2c0-2.8,2.3-5.1,5.1-5.1h40.5c2.8,0,5.1,2.3,5.1,5.1v18.6
		c0,1-0.8,1.8-1.8,1.8s-1.8-0.8-1.8-1.8V12.2c0-0.9-0.7-1.6-1.6-1.6H9.7c-0.9,0-1.6,0.7-1.6,1.6v35.4c0,0.9,0.7,1.6,1.6,1.6h13.5
		c1,0,1.8,0.8,1.8,1.8S24.2,52.8,23.2,52.8z"/>
	<path class="st0" d="M53.6,20.8H6.4c-1,0-1.8-0.8-1.8-1.8s0.8-1.8,1.8-1.8h47.2c1,0,1.8,0.8,1.8,1.8S54.6,20.8,53.6,20.8z"/>
	<path class="st0" d="M18.3,43.8c-2.1,0-4.1-1-5.3-2.7c-0.6-0.8-0.4-1.9,0.4-2.4c0.8-0.6,1.9-0.4,2.4,0.4c0.6,0.9,1.6,1.4,2.7,1.3
		c1.7,0,3-0.9,3-1.7c0-0.8-1.2-1.8-2.9-1.8c-3.5,0-6.4-2.4-6.4-5.2c0-2.9,2.8-5.2,6.4-5.2c2.1-0.1,4.3,0.9,5.6,2.7
		c0.6,0.8,0.4,1.9-0.4,2.5s-1.9,0.4-2.5-0.4c-0.6-0.9-1.7-1.4-2.7-1.3c-1.7,0-3,0.9-3,1.7c0,0.8,1.2,1.7,2.9,1.7
		c3.5,0,6.4,2.4,6.4,5.3S22.1,44,18.5,44C18.5,43.8,18.4,43.8,18.3,43.8z"/>
	<path class="st0" d="M18.6,46.1c-1,0-1.8-0.8-1.8-1.8V42c0-1,0.8-1.8,1.8-1.8s1.8,0.8,1.8,1.8v2.3C20.4,45.2,19.6,46.1,18.6,46.1z"
		/>
	<path class="st0" d="M18.6,29.9c-1,0-1.8-0.8-1.8-1.8v-2.3c0-1,0.8-1.8,1.8-1.8s1.8,0.8,1.8,1.8v2.3C20.4,29,19.6,29.9,18.6,29.9z"
		/>
	<path class="st0" d="M50.2,52.8L50.2,52.8H9.5c-1,0-1.8-0.8-1.8-1.8s0.8-1.8,1.8-1.8h40.7l0,0c0.9,0,1.6-0.7,1.6-1.6V12
		c0-1,0.8-1.8,1.8-1.8s1.8,0.8,1.8,1.8v35.6C55.4,50.6,53,52.8,50.2,52.8z"/>
</g>
</svg>
