<?xml version="1.0" encoding="utf-8"?>
<!-- Generator: Adobe Illustrator 25.2.0, SVG Export Plug-In . SVG Version: 6.00 Build 0)  -->
<svg version="1.1" id="Layer_1" xmlns="http://www.w3.org/2000/svg" xmlns:xlink="http://www.w3.org/1999/xlink" x="0px" y="0px"
	 viewBox="0 0 60 60" style="enable-background:new 0 0 60 60;" xml:space="preserve">
<style type="text/css">
	.st0{fill:#02022d;}
</style>
<g>
	<path class="st0" d="M53.2,26.1c-0.9,0-1.6-0.6-1.7-1.5l-1.1-6.5l-6.5,1.1c-1,0.2-1.9-0.5-2-1.4c-0.2-1,0.5-1.9,1.4-2l8.2-1.3
		c0.9-0.1,1.8,0.5,2,1.4l1.4,8.2c0.1,0.9-0.5,1.8-1.4,2L53.2,26.1z"/>
	<path class="st0" d="M26.8,37.1c-1,0-1.7-0.8-1.7-1.8c0-0.3,0.1-0.6,0.3-0.9l7.3-10.2c1.2-1.6,3.4-2,5-0.9l4.5,3.1h0.2l8.1-11.3
		c0.5-0.8,1.5-1.1,2.4-0.7c0.8,0.5,1.1,1.5,0.7,2.4c-0.1,0.1-0.1,0.2-0.2,0.3l-8.1,11.3c-0.5,0.8-1.4,1.3-2.3,1.5
		c-0.9,0.2-1.9-0.1-2.7-0.6l-4.5-3.1c0,0-0.1,0-0.1,0l-7.3,10.3C27.9,36.9,27.4,37.1,26.8,37.1z"/>
	<path class="st0" d="M31.8,58.6H13.9c-4.9,0-8.9-4-8.9-8.9V10.3c0-4.9,4-8.9,8.9-8.9h17.9c4.9,0,8.9,4,8.9,8.9c0,1-0.8,1.8-1.8,1.8
		s-1.8-0.8-1.8-1.8c0-3-2.4-5.4-5.4-5.4H13.9c-3,0-5.4,2.4-5.4,5.4v39.3c0,3,2.4,5.4,5.4,5.4h0h17.9c3,0,5.4-2.4,5.4-5.4
		c0,0,0,0,0,0V37.2c0-1,0.8-1.8,1.8-1.8s1.8,0.8,1.8,1.8v12.5C40.7,54.6,36.7,58.6,31.8,58.6z"/>
	<path class="st0" d="M38.9,47.8H6.7c-1,0-1.8-0.8-1.8-1.8s0.8-1.8,1.8-1.8h32.2c1,0,1.8,0.8,1.8,1.8S39.9,47.8,38.9,47.8z"/>
</g>
</svg>
