<?xml version="1.0" encoding="utf-8"?>
<!-- Generator: Adobe Illustrator 25.2.0, SVG Export Plug-In . SVG Version: 6.00 Build 0)  -->
<svg version="1.1" id="Layer_1" xmlns="http://www.w3.org/2000/svg" xmlns:xlink="http://www.w3.org/1999/xlink" x="0px" y="0px"
	 viewBox="0 0 60 60" style="enable-background:new 0 0 60 60;" xml:space="preserve">
<style type="text/css">
	.st0{fill:#02022d;}
</style>
<g>
	<path class="st0" d="M33.4,56.2c-0.5,0-1-0.2-1.4-0.7c-0.6-0.8-0.5-1.9,0.3-2.5l5.4-4.4c0.3-0.3,0.8-0.4,1.2-0.4l7,0.3
		c0.2,0,0.4-0.1,0.5-0.3l1.8-6.7c0.1-0.4,0.4-0.8,0.7-1l5.8-3.8c0.2-0.1,0.2-0.3,0.2-0.5l-2.5-6.5c-0.2-0.4-0.2-0.8,0-1.2L55,22
		c0.1-0.2,0-0.4-0.2-0.5l-5.9-3.8c-0.4-0.2-0.6-0.6-0.7-1l-1.8-6.7c0-0.2-0.2-0.4-0.5-0.4l-7,0.3c-0.4,0-0.8-0.1-1.2-0.3l-5.4-4.4
		c-0.2-0.1-0.4-0.1-0.6,0l-5.4,4.4c-0.3,0.3-0.8,0.4-1.2,0.4l-7-0.4c-0.2,0-0.4,0.1-0.5,0.3l-1.8,6.7c-0.1,0.4-0.4,0.8-0.7,1
		l-5.8,3.8c-0.2,0.1-0.3,0.3-0.2,0.5l2.5,6.6c0.2,0.4,0.2,0.8,0,1.2l-1.1,2.8c-0.3,0.9-1.4,1.4-2.3,1c-0.9-0.3-1.4-1.4-1-2.3l0,0
		l0.8-2.2l-2.2-5.9c-0.6-1.7,0-3.7,1.6-4.7l5.3-3.4L14.3,9c0.5-1.8,2.2-3,4-2.9l6.3,0.3l4.9-4c1.5-1.2,3.5-1.2,5,0l4.9,4l6.3-0.3
		c1.8-0.1,3.5,1.1,4,2.9l1.7,6.1l5.3,3.4c1.5,1,2.2,3,1.5,4.7L56,29.1l2.2,5.9c0.6,1.7,0,3.7-1.5,4.7l-5.3,3.4l-1.7,6.1
		c-0.5,1.8-2.2,3-4,2.9l-6.3-0.3l-4.9,4C34.2,56.1,33.8,56.2,33.4,56.2z"/>
	<path class="st0" d="M7.2,56.4c-0.6,0-1.2-0.3-1.5-0.8l-3.9-6.2c-0.5-0.8-0.3-1.9,0.6-2.4c0.8-0.5,1.9-0.3,2.4,0.6l3.9,6.2
		c0.5,0.8,0.3,1.9-0.5,2.4C7.9,56.3,7.6,56.4,7.2,56.4L7.2,56.4z"/>
	<path class="st0" d="M40,46.2c-0.6,0-1.1-0.3-1.5-0.8l-15-23.6c-0.5-0.8-0.3-1.9,0.6-2.4c0.8-0.5,1.9-0.3,2.4,0.6l15,23.6
		c0.5,0.8,0.3,1.9-0.5,2.4C40.7,46.1,40.4,46.2,40,46.2L40,46.2z"/>
	<path class="st0" d="M6.4,55.2c-0.6,0-1.2-0.3-1.5-0.8l-2.4-3.7c-0.4-0.6-0.4-1.4,0.1-2L24.5,21c0.3-0.4,0.9-0.7,1.5-0.7
		c0.6,0,1.1,0.3,1.4,0.8l13.4,21.1c0.5,0.8,0.3,1.9-0.6,2.4c-0.1,0.1-0.3,0.1-0.4,0.2L7,55.1C6.8,55.1,6.6,55.2,6.4,55.2z M6.2,49.8
		l1,1.5l29.3-9.2L25.7,25.1L6.2,49.8z"/>
	<path class="st0" d="M19.7,58.5c-0.5,0-0.9,0-1.4-0.1c-1.8-0.4-3.3-1.5-4.3-3L12,52.2c-0.5-0.8-0.3-1.9,0.5-2.4s1.9-0.3,2.4,0.5
		l0,0l2.1,3.2c0.4,0.7,1.2,1.3,2,1.5c0.8,0.2,1.7,0,2.4-0.5c1.6-1.1,2-3.3,0.9-4.9L22.1,49c-0.6-0.8-0.4-1.9,0.4-2.4
		c0.8-0.6,1.9-0.4,2.4,0.4l0,0l0.4,0.6c2.1,3.2,1.3,7.5-1.8,9.7C22.4,58.1,21.1,58.5,19.7,58.5z"/>
</g>
</svg>
