<?xml version="1.0" encoding="utf-8"?>
<!-- Generator: Adobe Illustrator 25.2.0, SVG Export Plug-In . SVG Version: 6.00 Build 0)  -->
<svg version="1.1" id="Layer_1" xmlns="http://www.w3.org/2000/svg" xmlns:xlink="http://www.w3.org/1999/xlink" x="0px" y="0px"
	 viewBox="0 0 60 60" style="enable-background:new 0 0 60 60;" xml:space="preserve">
<style type="text/css">
	.st0{fill:#02022d;}
</style>
<g>
	<path class="st0" d="M58.3,26c-0.4,0-0.7-0.1-1-0.3L30,5.7l-27.3,20c-0.7,0.6-1.8,0.4-2.4-0.4s-0.4-1.8,0.4-2.4L29,2.2
		c0.6-0.4,1.4-0.4,2,0l28.3,20.7c0.8,0.6,0.9,1.6,0.4,2.4l0,0C59.3,25.8,58.8,26,58.3,26z"/>
	<path class="st0" d="M8.3,49.3c-4.6,0-8.3-3.8-8.3-8.4s3.8-8.3,8.4-8.3s8.3,3.7,8.3,8.3C16.7,45.6,12.9,49.3,8.3,49.3L8.3,49.3z
		 M8.3,36.2c-2.7,0-4.9,2.2-4.9,4.9S5.6,46,8.3,46s4.9-2.2,4.9-4.9S11,36.2,8.3,36.2z"/>
	<path class="st0" d="M51.7,49.3c-4.6,0-8.3-3.7-8.3-8.3s3.7-8.3,8.3-8.3S60,36.4,60,41l0,0C60,45.6,56.3,49.3,51.7,49.3z
		 M51.7,36.1c-2.7,0-4.9,2.2-4.9,4.9s2.2,4.9,4.9,4.9s4.9-2.2,4.9-4.9S54.4,36.2,51.7,36.1L51.7,36.1z"/>
	<path class="st0" d="M30,49.3c-4.6,0-8.3-3.7-8.3-8.3s3.7-8.3,8.3-8.3s8.3,3.7,8.3,8.3l0,0C38.3,45.6,34.6,49.3,30,49.3z M30,36.2
		c-2.7,0-4.9,2.2-4.9,4.9S27.3,46,30,46s4.9-2.2,4.9-4.9l0,0C34.9,38.4,32.7,36.2,30,36.2z"/>
	<path class="st0" d="M41.3,58.1h-0.9c-0.7,0-1.3-0.4-1.6-1c-2.1-4.9-7.8-7.1-12.6-5c-2.3,1-4.1,2.8-5,5c-0.3,0.6-0.9,1-1.6,1h-0.9
		c-0.7,0-1.3-0.4-1.6-1c-2.1-4.9-7.7-7.1-12.6-5c-0.6,0.3-1.3,0.6-1.8,1c-0.8,0.5-1.8,0.4-2.4-0.4c-0.6-0.8-0.4-1.8,0.4-2.4l0,0
		c5.9-4.2,14-2.9,18.2,3c0.1,0.1,0.2,0.2,0.2,0.4c4-6,12.1-7.6,18.1-3.6c1.4,1,2.7,2.2,3.6,3.6c4-6,12.1-7.6,18.1-3.6
		c0.1,0.1,0.2,0.2,0.3,0.2c0.7,0.6,0.8,1.7,0.1,2.4c-0.5,0.6-1.4,0.7-2.1,0.4C52.9,50,46.9,51,43.8,55.3c-0.4,0.6-0.8,1.2-1,1.8
		S42,58.1,41.3,58.1z"/>
</g>
</svg>
