<?xml version="1.0" encoding="utf-8"?>
<!-- Generator: Adobe Illustrator 25.2.0, SVG Export Plug-In . SVG Version: 6.00 Build 0)  -->
<svg version="1.1" id="Layer_1" xmlns="http://www.w3.org/2000/svg" xmlns:xlink="http://www.w3.org/1999/xlink" x="0px" y="0px"
	 viewBox="0 0 60 60" style="enable-background:new 0 0 60 60;" xml:space="preserve">
<style type="text/css">
	.st0{fill:#02022d;}
</style>
<g>
	<path class="st0" d="M46.5,42.8H6.1c-3,0-5.4-2.4-5.4-5.4v-22c0-3,2.4-5.4,5.4-5.5l0,0h40.4c3,0,5.4,2.4,5.4,5.4v22
		C52,40.3,49.6,42.8,46.5,42.8L46.5,42.8z M6.1,13.4c-1.1,0-1.9,0.9-1.9,1.9l0,0v22c0,1.1,0.8,1.9,1.9,1.9l0,0h40.4
		c1.1,0,1.9-0.9,1.9-1.9l0,0v-22c0-1.1-0.9-1.9-1.9-1.9H6.1z"/>
	<path class="st0" d="M53.9,50.1H13.5c-1,0-1.8-0.8-1.8-1.8s0.8-1.8,1.8-1.8l0,0h40.4c1.1,0,1.9-0.9,1.9-1.9v-22
		c0-1,0.8-1.8,1.8-1.8s1.8,0.8,1.8,1.8v22C59.3,47.7,56.9,50.1,53.9,50.1z"/>
	<path class="st0" d="M49.2,21.9H2.5c-1,0-1.8-0.8-1.8-1.8s0.8-1.8,1.8-1.8h46.9c1,0,1.8,0.8,1.8,1.8C51,21.1,50.2,21.9,49.2,21.9z"
		/>
	<path class="st0" d="M41.5,34.8h-6.9c-1,0-1.8-0.8-1.8-1.8s0.8-1.8,1.8-1.8h6.9c1,0,1.8,0.8,1.8,1.8S42.5,34.8,41.5,34.8z"/>
</g>
</svg>
